<svg width="36" height="36" viewBox="0 0 36 36" fill="none" xmlns="http://www.w3.org/2000/svg">
<g clip-path="url(#clip0_23621_527)">
<path d="M18 36C27.9411 36 36 27.9411 36 18C36 8.05887 27.9411 0 18 0C8.05887 0 0 8.05887 0 18C0 27.9411 8.05887 36 18 36Z" fill="#3683FC"/>
<path d="M23.853 5.5249H19.8656C17.4993 5.5249 14.8673 6.52013 14.8673 9.95015C14.8789 11.1453 14.8673 12.2899 14.8673 13.5781H12.1299V17.9342H14.9521V30.4747H20.1379V17.8514H23.5608L23.8705 13.5659H20.0486C20.0486 13.5659 20.0571 11.6594 20.0486 11.1058C20.0486 9.75035 21.459 9.82797 21.5438 9.82797C22.215 9.82797 23.52 9.82993 23.855 9.82797V5.5249H23.853Z" fill="#FAFCFF"/>
</g>
<defs>
<clipPath id="clip0_23621_527">
<rect width="36" height="36" fill="white"/>
</clipPath>
</defs>
</svg>
