<svg width="36" height="36" viewBox="0 0 36 36" fill="none" xmlns="http://www.w3.org/2000/svg">
<g clip-path="url(#clip0_23621_523)">
<path d="M0 2.65056C0 1.22715 1.19166 0.0717773 2.66062 0.0717773H33.3394C34.8089 0.0717773 36 1.22715 36 2.65056V33.4934C36 34.9172 34.8089 36.0718 33.3394 36.0718H2.66062C1.1918 36.0718 0 34.9174 0 33.4938V2.65014V2.65056Z" fill="#3683FC"/>
<path d="M10.9399 30.1989V13.9916H5.55288V30.1989H10.9405H10.9399ZM8.24754 11.7791C10.1257 11.7791 11.295 10.5346 11.295 8.97926C11.2599 7.38851 10.1257 6.17871 8.28326 6.17871C6.43952 6.17871 5.23535 7.38851 5.23535 8.97912C5.23535 10.5344 6.40423 11.779 8.21224 11.779H8.24712L8.24754 11.7791ZM13.9218 30.1989H19.3084V21.1489C19.3084 20.6652 19.3436 20.1802 19.4859 19.8347C19.8751 18.8665 20.7615 17.8642 22.25 17.8642C24.1988 17.8642 24.9788 19.3504 24.9788 21.5293V30.1989H30.3653V20.9061C30.3653 15.9281 27.7081 13.6116 24.1639 13.6116C21.2582 13.6116 19.982 15.2357 19.273 16.3418H19.3088V13.9921H13.922C13.9924 15.5126 13.9216 30.1994 13.9216 30.1994L13.9218 30.1989Z" fill="#FAFCFF"/>
</g>
<defs>
<clipPath id="clip0_23621_523">
<rect width="36" height="36" fill="white"/>
</clipPath>
</defs>
</svg>
