<svg width="358" height="64" viewBox="0 0 358 64" fill="none" xmlns="http://www.w3.org/2000/svg">
<path fill-rule="evenodd" clip-rule="evenodd" d="M27.9093 28.711C28.2734 28.0118 28.5718 27.6807 28.8529 27.4579C28.9901 27.3492 29.1589 27.5256 29.0754 27.6795C28.5041 28.7316 28.1603 30.0867 28.1603 31.5654C28.1603 32.5157 28.2609 33.466 28.248 34.4162C28.2292 35.7962 28.2048 37.7097 28.2 38.0522C28.1964 38.5503 28.1936 38.9832 28.1918 39.2916L28.189 39.7846L28.1887 39.8413L28.4125 43.5791C28.4127 43.5839 28.4169 43.5876 28.4217 43.5873C28.4269 43.587 28.4312 43.5913 28.4309 43.5966C28.4298 43.6154 28.4293 43.6343 28.4293 43.6535C28.4293 44.0486 28.6691 44.3639 28.9694 44.5644C29.272 44.7665 29.6699 44.8801 30.0919 44.8801C30.514 44.8801 30.9119 44.7665 31.2145 44.5644C31.5148 44.3639 31.7546 44.0486 31.7546 43.6535C31.7546 43.6002 31.7503 43.5483 31.742 43.498C31.7329 43.4427 31.7711 43.3884 31.827 43.3851C31.8753 43.3822 31.9121 43.3407 31.9092 43.2925L31.697 39.7469L31.708 38.1003C31.7098 37.8354 31.9469 37.632 32.2119 37.632C32.4477 37.632 32.6669 37.7842 32.6725 38.02L32.7148 39.7747L32.5622 43.3725C32.5613 43.3937 32.5777 43.4116 32.599 43.4125C32.6234 43.4136 32.6407 43.4369 32.6357 43.4609C32.623 43.5227 32.6162 43.587 32.6162 43.6535C32.6162 44.0486 32.8561 44.3639 33.1563 44.5644C33.4589 44.7665 33.8568 44.8801 34.2789 44.8801C34.7009 44.8801 35.0989 44.7665 35.4015 44.5644C35.7017 44.3639 35.9416 44.0486 35.9416 43.6535C35.9416 43.6426 35.9414 43.6318 35.941 43.6211C35.9398 43.5847 35.969 43.5534 36.0054 43.5549C36.0384 43.5563 36.0662 43.5307 36.0676 43.4978L36.2191 39.927C36.2225 39.8474 36.2232 39.768 36.2214 39.6883C36.2138 39.3663 36.193 38.4751 36.1826 38.0532C36.182 38.0301 36.1815 38.0101 36.1808 37.9869C36.1696 37.5933 36.058 33.698 36.0433 33.3525C36.0194 32.7899 36.0257 32.2235 36.0313 31.6604C36.0316 31.6288 36.0318 31.5971 36.0318 31.5654C36.0318 29.8842 35.5874 28.3629 34.8697 27.2649C34.779 27.1261 34.6839 26.9941 34.5848 26.8694C34.5719 26.8531 34.5589 26.837 34.5458 26.821C34.5729 26.8361 34.5993 26.8509 34.6249 26.8653L34.6257 26.8658C35.0145 27.084 35.2445 27.2216 35.4615 27.416C35.7011 27.6307 35.9689 27.9628 36.2999 28.6835C36.3591 28.8124 36.3928 28.9313 36.4058 29.0375C36.4791 29.6326 36.4259 30.3533 36.3244 31.7016C36.3175 31.7934 36.3685 31.8695 36.4586 31.8506C36.5534 31.8307 36.6381 31.9296 36.6313 32.0263C36.6299 32.0468 36.6292 32.0675 36.6292 32.0883C36.6292 32.5722 37.0197 32.9645 37.5014 32.9645C37.9832 32.9645 38.3737 32.5722 38.3737 32.0883C38.3737 32.0321 38.4235 31.9896 38.4733 32.0157C38.5123 32.0362 38.5516 32.0602 38.5912 32.0807C38.6729 32.123 38.7511 32.0569 38.7581 31.9651C38.8599 30.6288 38.9496 29.6046 38.8429 28.738C38.7087 27.648 37.7208 26.1451 37.1009 25.5896C36.6356 25.1727 36.1183 24.8861 35.6607 24.6326C35.6364 24.6191 35.6123 24.6058 35.5884 24.5925C35.5313 24.5608 35.4591 24.5811 35.4271 24.6382C35.4088 24.6708 35.3761 24.6928 35.339 24.6977L32.34 25.088C32.1573 25.1065 32.0097 25.1106 31.8275 25.088L29.2912 24.7285C29.241 24.7214 29.1974 24.69 29.1747 24.6445C29.1368 24.5685 29.0446 24.5372 28.9684 24.5749C28.4648 24.8241 27.7906 25.1686 27.3271 25.5359C27.0478 25.7572 25.2936 27.264 25.2937 29.696C25.2937 30.4058 25.2695 30.8456 25.4039 31.9455C25.4145 32.0323 25.4803 32.1076 25.5619 32.0763C25.6113 32.0573 25.6621 32.0283 25.7187 32.0071C25.77 31.9879 25.8157 32.0336 25.8157 32.0883C25.8157 32.5722 26.2062 32.9645 26.688 32.9645C27.1697 32.9645 27.5602 32.5722 27.5602 32.0883C27.5602 32.0578 27.5587 32.0276 27.5557 31.9979C27.5466 31.9089 27.5931 31.8221 27.6803 31.8422C27.7712 31.8632 27.8492 31.7921 27.8412 31.6991C27.7241 30.3345 27.6122 29.165 27.9093 28.711Z" fill="#3683FC"/>
<path d="M35.0604 21.925C35.0604 23.5702 33.7326 24.9039 32.0947 24.9039C30.4568 24.9039 29.129 23.5702 29.129 21.925C29.129 20.2798 30.4568 18.9461 32.0947 18.9461C33.7326 18.9461 35.0604 20.2798 35.0604 21.925Z" fill="#3683FC"/>
<path d="M98.421 24.7327L99.4673 23.684C102.148 21.0031 106.489 21.0031 109.17 23.684C111.847 26.3606 111.842 30.6873 109.172 33.3722L99.0985 43.4399C98.7251 43.8133 98.1196 43.8133 97.7462 43.4399L87.6804 33.3742C85.0043 30.698 85.0043 26.3592 87.6804 23.6831C90.3565 21.007 94.6953 21.007 97.3714 23.6831L98.421 24.7327Z" fill="#3683FC"/>
<path fill-rule="evenodd" clip-rule="evenodd" d="M84.0313 3.46164C88.9705 0.958503 94.4748 -0.222308 100.007 0.0344849C105.539 0.291277 110.91 1.9769 115.596 4.92679C120.282 7.87667 124.121 11.99 126.741 16.8653C129.36 21.7405 130.669 27.211 130.541 32.7427C130.412 38.2745 128.85 43.6784 126.007 48.4269C123.164 53.1755 119.138 57.1063 114.32 59.8358C109.8 62.3968 104.728 63.818 99.5445 63.9836C98.9793 64.0017 98.5207 63.5415 98.5207 62.976C98.5207 62.4105 98.9793 61.9538 99.5445 61.9345C104.374 61.7697 109.097 60.4407 113.309 58.0543C117.818 55.4995 121.587 51.8202 124.248 47.3756C126.909 42.931 128.371 37.8729 128.492 32.6952C128.612 27.5175 127.386 22.3971 124.935 17.8339C122.483 13.2707 118.889 9.42057 114.503 6.65947C110.117 3.89838 105.09 2.32064 99.912 2.08028C94.7338 1.83992 89.5817 2.94516 84.9587 5.28809C80.6405 7.47652 76.9218 10.6749 74.1157 14.6048C73.787 15.0651 73.153 15.195 72.6816 14.8826C72.2095 14.5699 72.0792 13.9326 72.4073 13.4711C75.4099 9.24699 79.3976 5.81002 84.0313 3.46164ZM98.1695 3.58617C103.225 3.52381 108.205 4.80875 112.598 7.30869C116.991 9.80862 120.637 13.4332 123.162 17.8092C125.686 22.1851 126.998 27.1543 126.962 32.2051C126.925 37.2559 125.542 42.2057 122.954 46.5448C120.366 50.8839 116.668 54.4555 112.24 56.8918C107.811 59.3281 102.813 60.5411 97.759 60.4058C92.7053 60.2705 87.7791 58.7919 83.4875 56.1222C79.178 53.4414 73.6147 48.191 69.2793 38.9631C68.3516 36.9885 67.5566 34.8565 66.7297 32.6392C66.2339 31.3097 65.7267 29.9496 65.1726 28.5744C63.7658 25.0826 61.9931 21.3066 59.1908 17.177C58.8729 16.7085 58.983 16.0693 59.4461 15.7435C59.9086 15.4181 60.5482 15.5285 60.8661 15.9963C63.786 20.2932 65.6275 24.2189 67.0742 27.8096C67.6765 29.3045 68.2001 30.711 68.6998 32.0533C69.4981 34.1977 70.2353 36.1781 71.1349 38.0929C75.3069 46.973 80.6067 51.9176 84.571 54.3837C88.5533 56.861 93.1245 58.233 97.8139 58.3585C102.503 58.484 107.141 57.3585 111.251 55.0978C115.36 52.837 118.792 49.5229 121.193 45.4965C123.594 41.4701 124.878 36.8771 124.912 32.1903C124.946 27.5036 123.729 22.8925 121.386 18.8319C119.043 14.7713 115.659 11.408 111.583 9.08824C107.507 6.76848 102.886 5.57615 98.1948 5.63401C93.8457 5.68766 89.5827 6.81423 85.7827 8.90653C85.2874 9.17922 84.6592 9.02522 84.3672 8.54114C84.0748 8.05652 84.2301 7.42487 84.7251 7.15052C88.8375 4.87157 93.4566 3.6443 98.1695 3.58617ZM95.6144 8.35546C95.548 7.79373 95.9496 7.28237 96.5136 7.23943C99.5267 7.01 102.559 7.33415 105.461 8.19882C108.689 9.1611 111.687 10.7725 114.27 12.9342C116.853 15.0958 118.967 17.7621 120.481 20.7692C121.995 23.7764 122.878 27.0611 123.076 30.4216C123.274 33.7821 122.782 37.1476 121.631 40.3114C120.48 43.4752 118.694 46.3706 116.383 48.8198C114.071 51.2691 111.283 53.2204 108.189 54.5542C105.115 55.8798 101.769 56.6702 98.3641 56.5756C92.8005 56.421 87.5743 54.8922 82.9164 51.107C78.446 47.4741 74.5749 41.8245 71.3982 33.5113C71.1961 32.9824 71.4696 32.3922 72.0013 32.1975C72.5326 32.003 73.1206 32.2773 73.3228 32.8057C76.4143 40.8874 80.1069 46.1839 84.2099 49.5182C88.456 52.9688 93.2229 54.3839 98.4211 54.5284C101.473 54.6132 104.521 53.9052 107.377 52.6738C110.214 51.4506 112.771 49.661 114.891 47.4148C117.011 45.1686 118.649 42.5133 119.705 39.6118C120.76 36.7102 121.211 33.6238 121.03 30.5419C120.848 27.4599 120.039 24.4476 118.65 21.6897C117.261 18.9318 115.323 16.4866 112.954 14.5041C110.585 12.5217 107.836 11.0439 104.875 10.1614C102.241 9.37643 99.4892 9.07719 96.7536 9.27525C96.1896 9.31608 95.6807 8.91702 95.6144 8.35546Z" fill="#3683FC"/>
<path fill-rule="evenodd" clip-rule="evenodd" d="M46.5185 60.5384C41.5793 63.0415 36.075 64.2223 30.5427 63.9655C25.0105 63.7087 19.6394 62.0231 14.9538 59.0732C10.2683 56.1233 6.42838 52.01 3.80902 47.1347C1.18964 42.2595 -0.119677 36.789 0.00887012 31.2573C0.137417 25.7255 1.69944 20.3216 4.54245 15.5731C7.38545 10.8245 11.4123 6.89367 16.2298 4.16422C20.7501 1.60316 25.8216 0.181969 31.0053 0.0163534C31.5705 -0.00170546 32.0291 0.458465 32.0291 1.024C32.0291 1.58954 31.5705 2.04618 31.0053 2.06547C26.1762 2.23032 21.4529 3.55935 17.241 5.94571C12.7317 8.50048 8.96265 12.1798 6.3016 16.6244C3.64055 21.069 2.17849 26.1271 2.05817 31.3048C1.93785 36.4825 3.16337 41.6029 5.6151 46.1661C8.06682 50.7293 11.661 54.5794 16.0466 57.3405C20.4323 60.1016 25.4596 61.6794 30.6378 61.9197C35.816 62.1601 40.9681 61.0548 45.5911 58.7119C49.9093 56.5235 53.628 53.3251 56.4341 49.3952C56.7628 48.9349 57.3968 48.805 57.8682 49.1174C58.3403 49.4301 58.4706 50.0674 58.1425 50.5289C55.1399 54.753 51.1522 58.19 46.5185 60.5384ZM32.3803 60.4138C27.3252 60.4762 22.3449 59.1912 17.952 56.6913C13.5592 54.1914 9.91275 50.5668 7.38807 46.1908C4.86339 41.8149 3.55177 36.8457 3.58825 31.7949C3.62474 26.7441 5.00803 21.7943 7.59568 17.4552C10.1833 13.1161 13.8818 9.54454 18.3103 7.10823C22.7387 4.67191 27.7372 3.45894 32.7908 3.5942C37.8445 3.72946 42.7707 5.20806 47.0623 7.87777C51.3718 10.5586 56.9351 15.809 61.2705 25.0369C62.1982 27.0115 62.9932 29.1435 63.8201 31.3608C64.3159 32.6903 64.8231 34.0504 65.3772 35.4256C66.784 38.9174 68.5567 42.6934 71.359 46.8229C71.6769 47.2915 71.5668 47.9307 71.1037 48.2565C70.6412 48.5819 70.0016 48.4715 69.6837 48.0037C66.7638 43.7068 64.9223 39.7811 63.4756 36.1904C62.8733 34.6955 62.3497 33.289 61.85 31.9467C61.0517 29.8023 60.3145 27.8219 59.4149 25.9071C55.2429 17.027 49.9431 12.0824 45.9788 9.6163C41.9965 7.13902 37.4253 5.76697 32.7359 5.64146C28.0465 5.51595 23.4083 6.64151 19.299 8.90223C15.1897 11.163 11.7578 14.4771 9.35665 18.5035C6.9555 22.5299 5.67191 27.1229 5.63805 31.8097C5.60419 36.4964 6.82128 41.1075 9.164 45.1681C11.5067 49.2287 14.8904 52.592 18.9666 54.9118C23.0428 57.2315 27.6642 58.4238 32.355 58.366C36.7041 58.3123 40.9671 57.1858 44.7671 55.0935C45.2624 54.8208 45.8906 54.9748 46.1826 55.4589C46.475 55.9435 46.3197 56.5751 45.8247 56.8495C41.7123 59.1284 37.0932 60.3557 32.3803 60.4138ZM34.9354 55.6445C35.0018 56.2063 34.6002 56.7176 34.0362 56.7606C31.0231 56.99 27.9904 56.6658 25.0891 55.8012C21.8604 54.8389 18.8625 53.2275 16.2796 51.0658C13.6967 48.9042 11.5832 46.2379 10.0689 43.2308C8.55457 40.2236 7.6714 36.9389 7.47358 33.5784C7.27577 30.2179 7.76748 26.8524 8.91853 23.6886C10.0696 20.5248 11.8557 17.6294 14.1672 15.1802C16.4787 12.7309 19.2668 10.7795 22.3604 9.44578C25.435 8.12022 28.7804 7.32978 32.1857 7.4244C37.7493 7.57899 42.9755 9.1078 47.6334 12.893C52.1038 16.5259 55.9749 22.1755 59.1516 30.4887C59.3537 31.0176 59.0802 31.6078 58.5485 31.8025C58.0172 31.997 57.4292 31.7227 57.227 31.1943C54.1355 23.1126 50.4429 17.8161 46.3399 14.4818C42.0938 11.0312 37.3269 9.61605 32.1287 9.47161C29.0771 9.38681 26.0288 10.0948 23.1726 11.3262C20.3355 12.5494 17.7785 14.339 15.6586 16.5852C13.5387 18.8314 11.9007 21.4867 10.8451 24.3882C9.78943 27.2898 9.33848 30.3762 9.5199 33.4581C9.70132 36.5401 10.5113 39.5524 11.9 42.3103C13.2888 45.0682 15.2271 47.5134 17.5959 49.4959C19.9647 51.4783 22.714 52.9561 25.6751 53.8386C28.3088 54.6236 31.0606 54.9228 33.7962 54.7247C34.3602 54.6839 34.8691 55.083 34.9354 55.6445Z" fill="#3683FC"/>
<path d="M172.326 25V8.2H174.342V23.392H182.166V25H172.326ZM189.724 25.288C188.604 25.288 187.596 25.032 186.7 24.52C185.804 24.008 185.092 23.288 184.564 22.36C184.052 21.416 183.796 20.312 183.796 19.048C183.796 17.784 184.06 16.688 184.588 15.76C185.116 14.816 185.828 14.088 186.724 13.576C187.636 13.064 188.652 12.808 189.772 12.808C190.892 12.808 191.9 13.064 192.796 13.576C193.692 14.088 194.396 14.816 194.908 15.76C195.436 16.688 195.7 17.784 195.7 19.048C195.7 20.312 195.436 21.416 194.908 22.36C194.38 23.288 193.66 24.008 192.748 24.52C191.852 25.032 190.844 25.288 189.724 25.288ZM189.724 23.56C190.412 23.56 191.052 23.392 191.644 23.056C192.236 22.72 192.716 22.216 193.084 21.544C193.452 20.872 193.636 20.04 193.636 19.048C193.636 18.056 193.452 17.224 193.084 16.552C192.732 15.88 192.26 15.376 191.668 15.04C191.076 14.704 190.444 14.536 189.772 14.536C189.084 14.536 188.444 14.704 187.852 15.04C187.26 15.376 186.78 15.88 186.412 16.552C186.044 17.224 185.86 18.056 185.86 19.048C185.86 20.04 186.044 20.872 186.412 21.544C186.78 22.216 187.252 22.72 187.828 23.056C188.42 23.392 189.052 23.56 189.724 23.56ZM198.503 25V13.096H200.327L200.447 15.232C200.831 14.48 201.383 13.888 202.103 13.456C202.823 13.024 203.639 12.808 204.551 12.808C205.959 12.808 207.079 13.24 207.911 14.104C208.759 14.952 209.183 16.264 209.183 18.04V25H207.167V18.256C207.167 15.776 206.143 14.536 204.095 14.536C203.071 14.536 202.215 14.912 201.527 15.664C200.855 16.4 200.519 17.456 200.519 18.832V25H198.503ZM216.941 21.256C216.269 21.256 215.653 21.168 215.093 20.992L213.893 22.12C214.069 22.248 214.285 22.36 214.541 22.456C214.813 22.536 215.197 22.616 215.693 22.696C216.189 22.76 216.885 22.832 217.781 22.912C219.381 23.024 220.525 23.392 221.213 24.016C221.901 24.64 222.245 25.456 222.245 26.464C222.245 27.152 222.053 27.808 221.669 28.432C221.301 29.056 220.725 29.568 219.941 29.968C219.173 30.368 218.181 30.568 216.965 30.568C215.893 30.568 214.941 30.424 214.109 30.136C213.277 29.864 212.629 29.44 212.165 28.864C211.701 28.304 211.469 27.592 211.469 26.728C211.469 26.28 211.589 25.792 211.829 25.264C212.069 24.752 212.517 24.264 213.173 23.8C212.821 23.656 212.517 23.504 212.261 23.344C212.021 23.168 211.797 22.976 211.589 22.768V22.216L213.629 20.2C212.685 19.4 212.213 18.344 212.213 17.032C212.213 16.248 212.397 15.536 212.765 14.896C213.133 14.256 213.669 13.752 214.373 13.384C215.077 13 215.933 12.808 216.941 12.808C217.629 12.808 218.253 12.904 218.813 13.096H223.205V14.608L220.973 14.704C221.437 15.376 221.669 16.152 221.669 17.032C221.669 17.816 221.477 18.528 221.093 19.168C220.725 19.808 220.189 20.32 219.485 20.704C218.797 21.072 217.949 21.256 216.941 21.256ZM216.941 19.6C217.789 19.6 218.461 19.384 218.957 18.952C219.469 18.504 219.725 17.864 219.725 17.032C219.725 16.216 219.469 15.592 218.957 15.16C218.461 14.712 217.789 14.488 216.941 14.488C216.077 14.488 215.389 14.712 214.877 15.16C214.381 15.592 214.133 16.216 214.133 17.032C214.133 17.864 214.381 18.504 214.877 18.952C215.389 19.384 216.077 19.6 216.941 19.6ZM213.437 26.536C213.437 27.336 213.773 27.928 214.445 28.312C215.117 28.712 215.957 28.912 216.965 28.912C217.957 28.912 218.749 28.696 219.341 28.264C219.949 27.832 220.253 27.256 220.253 26.536C220.253 26.024 220.045 25.576 219.629 25.192C219.213 24.824 218.445 24.608 217.325 24.544C216.445 24.48 215.685 24.4 215.045 24.304C214.389 24.656 213.957 25.032 213.749 25.432C213.541 25.848 213.437 26.216 213.437 26.536ZM230.362 25.288C229.226 25.288 228.218 25.032 227.338 24.52C226.458 23.992 225.762 23.264 225.25 22.336C224.754 21.408 224.506 20.312 224.506 19.048C224.506 17.8 224.754 16.712 225.25 15.784C225.746 14.84 226.434 14.112 227.314 13.6C228.21 13.072 229.242 12.808 230.41 12.808C231.562 12.808 232.554 13.072 233.386 13.6C234.234 14.112 234.882 14.792 235.33 15.64C235.778 16.488 236.002 17.4 236.002 18.376C236.002 18.552 235.994 18.728 235.978 18.904C235.978 19.08 235.978 19.28 235.978 19.504H226.498C226.546 20.416 226.754 21.176 227.122 21.784C227.506 22.376 227.978 22.824 228.538 23.128C229.114 23.432 229.722 23.584 230.362 23.584C231.194 23.584 231.89 23.392 232.45 23.008C233.01 22.624 233.418 22.104 233.674 21.448H235.666C235.346 22.552 234.73 23.472 233.818 24.208C232.922 24.928 231.77 25.288 230.362 25.288ZM230.362 14.512C229.402 14.512 228.546 14.808 227.794 15.4C227.058 15.976 226.634 16.824 226.522 17.944H234.01C233.962 16.872 233.594 16.032 232.906 15.424C232.218 14.816 231.37 14.512 230.362 14.512ZM241.638 25L237.126 13.096H239.238L242.814 23.056L246.414 13.096H248.478L243.966 25H241.638ZM251.945 10.456C251.545 10.456 251.209 10.328 250.937 10.072C250.681 9.8 250.553 9.464 250.553 9.064C250.553 8.68 250.681 8.36 250.937 8.104C251.209 7.848 251.545 7.72 251.945 7.72C252.329 7.72 252.657 7.848 252.929 8.104C253.201 8.36 253.337 8.68 253.337 9.064C253.337 9.464 253.201 9.8 252.929 10.072C252.657 10.328 252.329 10.456 251.945 10.456ZM250.937 25V13.096H252.953V25H250.937ZM261.168 25C260.08 25 259.224 24.736 258.6 24.208C257.976 23.68 257.664 22.728 257.664 21.352V14.8H255.6V13.096H257.664L257.928 10.24H259.68V13.096H263.184V14.8H259.68V21.352C259.68 22.104 259.832 22.616 260.136 22.888C260.44 23.144 260.976 23.272 261.744 23.272H262.992V25H261.168ZM267.041 30.28L269.993 23.848H269.297L264.569 13.096H266.753L270.689 22.36L274.865 13.096H276.953L269.153 30.28H267.041ZM172.134 56V39.2H175.662C178.414 39.2 180.446 39.952 181.758 41.456C183.086 42.96 183.75 45.008 183.75 47.6C183.75 50.192 183.086 52.24 181.758 53.744C180.446 55.248 178.414 56 175.662 56H172.134ZM174.15 54.152H175.614C177.086 54.152 178.262 53.88 179.142 53.336C180.038 52.792 180.686 52.032 181.086 51.056C181.486 50.08 181.686 48.928 181.686 47.6C181.686 46.272 181.486 45.12 181.086 44.144C180.686 43.168 180.038 42.408 179.142 41.864C178.262 41.32 177.086 41.048 175.614 41.048H174.15V54.152ZM193.7 56.288C192.58 56.288 191.588 56.032 190.724 55.52C189.876 54.992 189.204 54.264 188.708 53.336C188.212 52.392 187.964 51.296 187.964 50.048C187.964 48.8 188.204 47.712 188.684 46.784C189.18 45.84 189.86 45.112 190.724 44.6C191.588 44.072 192.596 43.808 193.748 43.808C194.9 43.808 195.884 44.072 196.7 44.6C197.516 45.112 198.14 45.792 198.572 46.64C199.004 47.488 199.22 48.4 199.22 49.376C199.22 49.552 199.212 49.728 199.196 49.904C199.196 50.08 199.196 50.28 199.196 50.504H189.956C190.004 51.384 190.204 52.12 190.556 52.712C190.924 53.288 191.38 53.72 191.924 54.008C192.484 54.296 193.076 54.44 193.7 54.44C194.58 54.44 195.268 54.256 195.764 53.888C196.26 53.52 196.636 53.008 196.892 52.352H198.884C198.612 53.456 198.044 54.392 197.18 55.16C196.316 55.912 195.156 56.288 193.7 56.288ZM193.7 45.608C192.772 45.608 191.956 45.888 191.252 46.448C190.564 47.008 190.14 47.792 189.98 48.8H197.228C197.164 47.808 196.804 47.032 196.148 46.472C195.508 45.896 194.692 45.608 193.7 45.608ZM208.235 56L203.003 44.096H205.307L209.411 53.792L213.539 44.096H215.819L210.563 56H208.235ZM225.362 56.288C224.242 56.288 223.25 56.032 222.386 55.52C221.538 54.992 220.866 54.264 220.37 53.336C219.874 52.392 219.626 51.296 219.626 50.048C219.626 48.8 219.866 47.712 220.346 46.784C220.842 45.84 221.522 45.112 222.386 44.6C223.25 44.072 224.258 43.808 225.41 43.808C226.562 43.808 227.546 44.072 228.362 44.6C229.178 45.112 229.802 45.792 230.234 46.64C230.666 47.488 230.882 48.4 230.882 49.376C230.882 49.552 230.874 49.728 230.858 49.904C230.858 50.08 230.858 50.28 230.858 50.504H221.618C221.666 51.384 221.866 52.12 222.218 52.712C222.586 53.288 223.042 53.72 223.586 54.008C224.146 54.296 224.738 54.44 225.362 54.44C226.242 54.44 226.93 54.256 227.426 53.888C227.922 53.52 228.298 53.008 228.554 52.352H230.546C230.274 53.456 229.706 54.392 228.842 55.16C227.978 55.912 226.818 56.288 225.362 56.288ZM225.362 45.608C224.434 45.608 223.618 45.888 222.914 46.448C222.226 47.008 221.802 47.792 221.642 48.8H228.89C228.826 47.808 228.466 47.032 227.81 46.472C227.17 45.896 226.354 45.608 225.362 45.608ZM235.672 56V54.272H239.728V41.048C239.728 40.648 239.528 40.448 239.128 40.448H236.104V38.72H239.608C240.296 38.72 240.824 38.904 241.192 39.272C241.56 39.64 241.744 40.168 241.744 40.856V54.272H245.8V56H235.672ZM256.903 56.288C255.783 56.288 254.791 56.032 253.927 55.52C253.063 55.008 252.383 54.288 251.887 53.36C251.391 52.416 251.143 51.312 251.143 50.048C251.143 48.784 251.391 47.688 251.887 46.76C252.383 45.816 253.063 45.088 253.927 44.576C254.791 44.064 255.783 43.808 256.903 43.808C258.023 43.808 259.015 44.064 259.879 44.576C260.743 45.088 261.423 45.816 261.919 46.76C262.415 47.688 262.663 48.784 262.663 50.048C262.663 51.312 262.415 52.416 261.919 53.36C261.423 54.288 260.743 55.008 259.879 55.52C259.015 56.032 258.023 56.288 256.903 56.288ZM256.903 54.368C257.591 54.368 258.215 54.216 258.775 53.912C259.335 53.608 259.775 53.136 260.095 52.496C260.431 51.856 260.599 51.04 260.599 50.048C260.599 49.056 260.431 48.24 260.095 47.6C259.775 46.96 259.335 46.488 258.775 46.184C258.215 45.88 257.591 45.728 256.903 45.728C256.231 45.728 255.615 45.88 255.055 46.184C254.495 46.488 254.047 46.96 253.711 47.6C253.375 48.24 253.207 49.056 253.207 50.048C253.207 51.536 253.567 52.632 254.287 53.336C255.007 54.024 255.879 54.368 256.903 54.368ZM267.406 61.28V44.096H269.038L269.278 46.064H269.422C269.726 45.424 270.214 44.888 270.886 44.456C271.558 44.024 272.35 43.808 273.262 43.808C274.222 43.808 275.086 44.048 275.854 44.528C276.638 45.008 277.254 45.72 277.702 46.664C278.15 47.592 278.374 48.728 278.374 50.072C278.374 51.4 278.142 52.528 277.678 53.456C277.23 54.384 276.606 55.088 275.806 55.568C275.022 56.048 274.118 56.288 273.094 56.288C272.182 56.288 271.406 56.096 270.766 55.712C270.142 55.312 269.694 54.848 269.422 54.32V61.28H267.406ZM272.854 54.368C273.862 54.368 274.694 54.016 275.35 53.312C276.006 52.592 276.334 51.504 276.334 50.048C276.334 48.592 276.006 47.512 275.35 46.808C274.694 46.088 273.862 45.728 272.854 45.728C271.846 45.728 271.014 46.088 270.358 46.808C269.702 47.512 269.374 48.592 269.374 50.048C269.374 51.504 269.702 52.592 270.358 53.312C271.014 54.016 271.846 54.368 272.854 54.368ZM288.684 56.288C287.564 56.288 286.572 56.032 285.708 55.52C284.86 54.992 284.188 54.264 283.692 53.336C283.196 52.392 282.948 51.296 282.948 50.048C282.948 48.8 283.188 47.712 283.668 46.784C284.164 45.84 284.844 45.112 285.708 44.6C286.572 44.072 287.58 43.808 288.732 43.808C289.884 43.808 290.868 44.072 291.684 44.6C292.5 45.112 293.124 45.792 293.556 46.64C293.988 47.488 294.204 48.4 294.204 49.376C294.204 49.552 294.196 49.728 294.18 49.904C294.18 50.08 294.18 50.28 294.18 50.504H284.94C284.988 51.384 285.188 52.12 285.54 52.712C285.908 53.288 286.364 53.72 286.908 54.008C287.468 54.296 288.06 54.44 288.684 54.44C289.564 54.44 290.252 54.256 290.748 53.888C291.244 53.52 291.62 53.008 291.876 52.352H293.868C293.596 53.456 293.028 54.392 292.164 55.16C291.3 55.912 290.14 56.288 288.684 56.288ZM288.684 45.608C287.756 45.608 286.94 45.888 286.236 46.448C285.548 47.008 285.124 47.792 284.964 48.8H292.212C292.148 47.808 291.788 47.032 291.132 46.472C290.492 45.896 289.676 45.608 288.684 45.608ZM299.211 56V54.272H302.259V46.424C302.259 46.024 302.067 45.824 301.683 45.824H299.523V44.096H302.427C302.955 44.096 303.379 44.24 303.699 44.528C304.019 44.816 304.179 45.24 304.179 45.8V46.304H304.275C304.467 45.504 304.827 44.888 305.355 44.456C305.899 44.024 306.651 43.808 307.611 43.808H309.795V45.944H307.323C306.347 45.944 305.595 46.272 305.067 46.928C304.539 47.568 304.275 48.392 304.275 49.4V54.272H308.019V56H299.211ZM320.345 56.288C318.825 56.288 317.593 55.936 316.649 55.232C315.721 54.512 315.201 53.528 315.089 52.28H317.177C317.273 52.936 317.593 53.472 318.137 53.888C318.697 54.304 319.449 54.512 320.393 54.512C321.289 54.512 321.953 54.32 322.385 53.936C322.833 53.552 323.057 53.112 323.057 52.616C323.057 51.944 322.793 51.488 322.265 51.248C321.737 50.992 320.945 50.8 319.889 50.672C318.625 50.528 317.577 50.184 316.745 49.64C315.913 49.096 315.497 48.28 315.497 47.192C315.497 46.216 315.905 45.408 316.721 44.768C317.537 44.128 318.649 43.808 320.057 43.808C321.449 43.808 322.545 44.128 323.345 44.768C324.145 45.392 324.601 46.288 324.713 47.456H322.721C322.673 46.88 322.393 46.424 321.881 46.088C321.385 45.736 320.761 45.56 320.009 45.56C319.225 45.56 318.617 45.712 318.185 46.016C317.753 46.304 317.537 46.688 317.537 47.168C317.537 47.648 317.777 48.048 318.257 48.368C318.753 48.672 319.529 48.872 320.585 48.968C321.417 49.064 322.177 49.224 322.865 49.448C323.553 49.672 324.097 50.024 324.497 50.504C324.913 50.984 325.121 51.656 325.121 52.52C325.137 53.24 324.937 53.888 324.521 54.464C324.121 55.024 323.561 55.472 322.841 55.808C322.121 56.128 321.289 56.288 320.345 56.288Z" fill="#0C1E3C"/>
<path d="M285.552 25V8.2H287.568V25H285.552ZM291.01 25V13.096H292.834L292.954 15.232C293.338 14.48 293.89 13.888 294.61 13.456C295.33 13.024 296.146 12.808 297.058 12.808C298.466 12.808 299.586 13.24 300.418 14.104C301.266 14.952 301.69 16.264 301.69 18.04V25H299.674V18.256C299.674 15.776 298.65 14.536 296.602 14.536C295.578 14.536 294.722 14.912 294.034 15.664C293.362 16.4 293.026 17.456 293.026 18.832V25H291.01ZM308.801 25V9.856H303.785V8.2H315.833V9.856H310.817V25H308.801ZM319.399 10.456C318.999 10.456 318.663 10.328 318.391 10.072C318.135 9.8 318.007 9.464 318.007 9.064C318.007 8.68 318.135 8.36 318.391 8.104C318.663 7.848 318.999 7.72 319.399 7.72C319.783 7.72 320.111 7.848 320.383 8.104C320.655 8.36 320.791 8.68 320.791 9.064C320.791 9.464 320.655 9.8 320.383 10.072C320.111 10.328 319.783 10.456 319.399 10.456ZM318.391 25V13.096H320.407V25H318.391ZM323.917 25V13.096H325.741L325.885 14.824C326.269 14.184 326.781 13.688 327.421 13.336C328.061 12.984 328.781 12.808 329.581 12.808C330.525 12.808 331.333 13 332.005 13.384C332.693 13.768 333.221 14.352 333.589 15.136C334.005 14.416 334.573 13.848 335.293 13.432C336.029 13.016 336.821 12.808 337.669 12.808C339.093 12.808 340.229 13.24 341.077 14.104C341.925 14.952 342.349 16.264 342.349 18.04V25H340.357V18.256C340.357 17.024 340.109 16.096 339.613 15.472C339.117 14.848 338.405 14.536 337.477 14.536C336.517 14.536 335.717 14.912 335.077 15.664C334.453 16.4 334.141 17.456 334.141 18.832V25H332.125V18.256C332.125 17.024 331.877 16.096 331.381 15.472C330.885 14.848 330.173 14.536 329.245 14.536C328.301 14.536 327.509 14.912 326.869 15.664C326.245 16.4 325.933 17.456 325.933 18.832V25H323.917ZM350.737 25.288C349.601 25.288 348.593 25.032 347.713 24.52C346.833 23.992 346.137 23.264 345.625 22.336C345.129 21.408 344.881 20.312 344.881 19.048C344.881 17.8 345.129 16.712 345.625 15.784C346.121 14.84 346.809 14.112 347.689 13.6C348.585 13.072 349.617 12.808 350.785 12.808C351.937 12.808 352.929 13.072 353.761 13.6C354.609 14.112 355.257 14.792 355.705 15.64C356.153 16.488 356.377 17.4 356.377 18.376C356.377 18.552 356.369 18.728 356.353 18.904C356.353 19.08 356.353 19.28 356.353 19.504H346.873C346.921 20.416 347.129 21.176 347.497 21.784C347.881 22.376 348.353 22.824 348.913 23.128C349.489 23.432 350.097 23.584 350.737 23.584C351.569 23.584 352.265 23.392 352.825 23.008C353.385 22.624 353.793 22.104 354.049 21.448H356.041C355.721 22.552 355.105 23.472 354.193 24.208C353.297 24.928 352.145 25.288 350.737 25.288ZM350.737 14.512C349.777 14.512 348.921 14.808 348.169 15.4C347.433 15.976 347.009 16.824 346.897 17.944H354.385C354.337 16.872 353.969 16.032 353.281 15.424C352.593 14.816 351.745 14.512 350.737 14.512Z" fill="url(#paint0_linear_22894_18520)"/>
<defs>
<linearGradient id="paint0_linear_22894_18520" x1="231.861" y1="-225.687" x2="691.505" y2="152.053" gradientUnits="userSpaceOnUse">
<stop offset="0.0728443" stop-color="#3683FC"/>
<stop offset="0.965938" stop-color="#21355C"/>
</linearGradient>
</defs>
</svg>
