<svg width="36" height="36" viewBox="0 0 36 36" fill="none" xmlns="http://www.w3.org/2000/svg">
<path d="M18 0C13.2272 0 8.64563 1.89759 5.27344 5.27203C1.89844 8.64647 0 13.228 0 18C0 22.772 1.89844 27.3535 5.27344 30.728C8.64563 34.1024 13.2272 36 18 36C22.7728 36 27.3544 34.1024 30.7266 30.728C34.1016 27.3535 36 22.772 36 18C36 13.228 34.1016 8.64647 30.7266 5.27203C27.3544 1.89759 22.7728 0 18 0Z" fill="#3683FC"/>
<path d="M8.14784 17.8099C13.396 15.5239 16.8947 14.0167 18.644 13.2886C23.6447 11.2093 24.6824 10.8482 25.3603 10.8361C25.5093 10.8335 25.8412 10.8704 26.0577 11.0456C26.2377 11.1932 26.2884 11.3929 26.3137 11.533C26.3362 11.6731 26.3672 11.9923 26.3419 12.2415C26.0719 15.0877 24.8991 21.9947 24.3028 25.1826C24.0525 26.5316 23.5547 26.9838 23.0737 27.028C22.0275 27.1241 21.2343 26.3372 20.2218 25.6737C18.6384 24.635 17.7441 23.9887 16.2056 22.9754C14.4281 21.8042 15.5812 21.1605 16.5937 20.1086C16.8581 19.8332 21.4649 15.644 21.5521 15.2641C21.5634 15.2165 21.5747 15.0393 21.4678 14.946C21.3637 14.8523 21.209 14.8844 21.0965 14.9097C20.9361 14.9457 18.4077 16.6186 13.5027 19.928C12.7855 20.4213 12.1359 20.6618 11.5509 20.6491C10.9096 20.6354 9.67218 20.2858 8.7525 19.9871C7.6275 19.6206 6.73027 19.4268 6.80902 18.8044C6.84839 18.4804 7.29565 18.1488 8.14784 17.8099Z" fill="#FAFCFF"/>
</svg>
