<svg width="36" height="36" viewBox="0 0 36 36" fill="none" xmlns="http://www.w3.org/2000/svg">
<path d="M11.1949 32.9407C24.6283 32.9407 31.9746 21.8075 31.9746 12.1532C31.9746 11.837 31.9682 11.5223 31.9539 11.2088C33.3834 10.1741 34.617 8.89303 35.597 7.42556C34.2884 8.00756 32.8802 8.39927 31.4029 8.57588C32.9108 7.67141 34.0684 6.24051 34.6145 4.5349C33.1809 5.38567 31.6125 5.98543 29.9769 6.30831C28.6442 4.88819 26.7469 4 24.6459 4C20.6128 4 17.3422 7.27188 17.3422 11.305C17.3422 11.8784 17.4064 12.4359 17.5317 12.9709C11.4617 12.6653 6.07934 9.7581 2.47717 5.33749C1.82839 6.45246 1.48714 7.71964 1.48827 9.00963C1.48827 11.5444 2.77758 13.782 4.73831 15.0911C3.57851 15.0557 2.44418 14.7423 1.43068 14.1773C1.4296 14.208 1.4296 14.2379 1.4296 14.2707C1.4296 17.8089 3.947 20.7631 7.28877 21.4325C6.66114 21.6035 6.0135 21.6899 5.36299 21.6895C4.89321 21.6895 4.43537 21.6433 3.99041 21.5579C4.9202 24.4608 7.61631 26.5732 10.8129 26.6322C8.3132 28.5922 5.16439 29.7596 1.74208 29.7596C1.1599 29.7601 0.578203 29.7263 0 29.6583C3.23224 31.7309 7.0702 32.9401 11.1953 32.9401" fill="#3683FC"/>
</svg>
