<svg width="1920" height="343" viewBox="0 0 1920 343" fill="none" xmlns="http://www.w3.org/2000/svg">
<path d="M959.092 162.559C1339.25 185.49 1520.33 353.713 2026 353.713V658H-1590V85.1877C-964.118 -40.978 -574.471 388.831 -182 388.831C378.941 388.831 413.867 129.671 959.092 162.559Z" fill="#3683FC" fill-opacity="0.7"/>
<path d="M245.5 101.891C-128.104 175.833 -44 278.891 -309 275.104V579.391H3307V6.57836C3045.45 -46.1452 2816.46 233.842 2432.5 284.391C1859 359.891 1806.96 101.891 1578.5 101.891C1311.54 101.891 1161.51 280.611 925 226.89C664.545 167.73 581.5 35.3906 245.5 101.891Z" fill="#3683FC" fill-opacity="0.7"/>
</svg>
